<svg width="16" height="17" viewBox="0 0 16 17" fill="none" xmlns="http://www.w3.org/2000/svg">
<path fill-rule="evenodd" clip-rule="evenodd" d="M7.88052 0.581447C5.74606 0.581447 4.01724 2.36988 4.01724 4.57794C4.01724 6.78601 5.74606 8.57444 7.88052 8.57444C10.015 8.57444 11.7438 6.78601 11.7438 4.57794C11.7438 2.36988 10.015 0.581447 7.88052 0.581447ZM9.81234 4.57811C9.81234 3.47908 8.9431 2.57986 7.8807 2.57986C6.81829 2.57986 5.94906 3.47908 5.94906 4.57811C5.94906 5.67715 6.81829 6.57636 7.8807 6.57636C8.9431 6.57636 9.81234 5.67715 9.81234 4.57811ZM13.6756 14.5693C13.4824 13.8599 10.4884 12.571 7.88064 12.571C5.28258 12.571 2.30786 13.8499 2.08572 14.5693H13.6756ZM0.154134 14.5692C0.154134 11.9115 5.30196 10.5727 7.8807 10.5727C10.4594 10.5727 15.6073 11.9115 15.6073 14.5692V16.5675H0.154134V14.5692Z" fill="black" fill-opacity="0.44"/>
</svg>
