<svg width="31" height="40" viewBox="0 0 31 40" fill="none" xmlns="http://www.w3.org/2000/svg">
<path d="M18.1624 0.822754C13.4596 0.822754 13.1372 3.78843 10.6873 5.32414C2.69698 2.48799 0.91961 17.1696 3.93254 26.0703C2.66958 28.6891 1.41122 32.2965 0.338501 37.1368C5.00017 39.6519 10.1104 40.3078 15.2862 37.9494C14.7776 34.8556 14.123 32.3009 13.484 30.1257C15.5368 29.0897 18.3726 28.9303 20.5797 31.3075C20.5994 28.9593 19.0193 27.9479 17.255 27.8417L15.4478 23.9606C18.9429 20.2646 21.5493 15.7427 20.1979 11.0767C19.3527 7.92264 24.9723 5.97235 30.2339 6.66756C28.2222 4.93145 25.641 4.16709 23.1919 3.88867C22.4665 2.10343 20.5165 0.822754 18.1624 0.822754ZM19.0621 2.62219C19.8667 2.62219 20.5209 3.27385 20.5209 4.07825C20.5209 4.88273 19.8668 5.5343 19.0622 5.5343C18.2577 5.5343 17.6062 4.88273 17.6062 4.07825C17.6062 3.27385 18.2579 2.62219 19.0622 2.62219H19.0621ZM14.2968 25.1193L15.6322 27.9853C14.679 28.2066 13.8009 28.6593 13.2277 29.2721C12.9572 28.3829 12.6947 27.5574 12.4509 26.7882C13.0727 26.2591 13.6919 25.701 14.2968 25.1193V25.1193Z" fill="black"/>
</svg>
