<svg width="20" height="18" viewBox="0 0 20 18" fill="none" xmlns="http://www.w3.org/2000/svg">
<path d="M19.4108 9.02863C18.632 7.38797 17.7053 6.04992 16.6306 5.01448L15.5034 6.14163C16.4225 7.02 17.2232 8.16908 17.9154 9.60017C16.0723 13.4149 13.456 15.2271 9.88051 15.2271C8.80727 15.2271 7.81872 15.0618 6.91488 14.7313L5.69357 15.9526C6.94892 16.5323 8.34456 16.8221 9.88051 16.8221C14.1383 16.8221 17.3151 14.6046 19.4108 10.1695C19.495 9.99114 19.5387 9.79633 19.5387 9.59907C19.5387 9.4018 19.495 9.20699 19.4108 9.02863ZM18.0025 1.92545L17.0581 0.979956C17.0417 0.963478 17.0221 0.950407 17.0006 0.941488C16.9791 0.932569 16.956 0.927979 16.9327 0.927979C16.9094 0.927979 16.8864 0.932569 16.8649 0.941488C16.8434 0.950407 16.8238 0.963478 16.8073 0.979956L14.3845 3.40173C13.0486 2.71942 11.5473 2.37826 9.88051 2.37826C5.62268 2.37826 2.44593 4.59579 0.350244 9.03084C0.266008 9.20921 0.222321 9.40402 0.222321 9.60128C0.222321 9.79854 0.266008 9.99335 0.350244 10.1717C1.18748 11.9351 2.19545 13.3486 3.37414 14.4121L1.0299 16.7556C0.996691 16.7889 0.978035 16.8339 0.978035 16.8809C0.978035 16.9279 0.996691 16.9729 1.0299 17.0062L1.97562 17.9519C2.00885 17.9851 2.05391 18.0038 2.10089 18.0038C2.14788 18.0038 2.19294 17.9851 2.22617 17.9519L18.0025 2.17622C18.019 2.15976 18.0321 2.14022 18.041 2.1187C18.0499 2.09719 18.0545 2.07413 18.0545 2.05084C18.0545 2.02755 18.0499 2.00449 18.041 1.98297C18.0321 1.96146 18.019 1.94191 18.0025 1.92545ZM1.84558 9.60017C3.69093 5.78541 6.30722 3.97328 9.88051 3.97328C11.0887 3.97328 12.1873 4.18064 13.184 4.60221L11.6266 6.15957C10.8891 5.76605 10.0446 5.62001 9.2177 5.74298C8.39083 5.86595 7.62538 6.25142 7.03426 6.84254C6.44315 7.43365 6.05767 8.19911 5.9347 9.02598C5.81173 9.85285 5.95778 10.6973 6.3513 11.4349L4.50329 13.2829C3.48048 12.3802 2.59879 11.1571 1.84558 9.60017ZM7.31075 9.60017C7.31114 9.20954 7.40367 8.8245 7.58082 8.47634C7.75798 8.12818 8.01476 7.82672 8.33031 7.59645C8.64586 7.36617 9.01128 7.21358 9.39688 7.15107C9.78248 7.08855 10.1774 7.11788 10.5495 7.23666L7.42838 10.3578C7.35015 10.1129 7.31047 9.85729 7.31075 9.60017Z" fill="black" fill-opacity="0.44"/>
<path d="M9.79185 12.0815C9.7152 12.0815 9.63966 12.0779 9.56478 12.0711L8.39465 13.2412C9.09844 13.5107 9.86522 13.5706 10.6023 13.4136C11.3394 13.2567 12.0153 12.8895 12.5482 12.3566C13.0811 11.8237 13.4482 11.1479 13.6052 10.4108C13.7621 9.6737 13.7022 8.90691 13.4327 8.20312L12.2626 9.37325C12.2695 9.44813 12.273 9.52367 12.273 9.60032C12.2732 9.9262 12.2091 10.2489 12.0845 10.55C11.9599 10.8511 11.7771 11.1247 11.5467 11.3551C11.3162 11.5856 11.0427 11.7683 10.7416 11.893C10.4404 12.0176 10.1177 12.0816 9.79185 12.0815Z" fill="black" fill-opacity="0.44"/>
</svg>
